# File created by Blade
# Date/Time:  Thu Jan 22 19:24:19 2015
# Frame Rate: 120.000 fps
#------------------------------------------------------
:FULLY-SPECIFIED
:DEGREES
3763
root -3.562883 33.805381 -3.659080 -13.695140 -44.593139 24.292390
RightUpLeg -8.304714 -2.100915 -10.498426
RightLeg 20.049540 -0.000000 -0.000000
RightFoot -21.232924 -4.157870 -0.417642
RightToeBase 7.113361 -0.000000 -0.000000
LeftUpLeg -108.538652 -29.068844 -1.561810
LeftLeg 114.915567 -0.000000 -0.000000
LeftFoot 13.658015 -8.457091 -17.162719
LeftToeBase 0.093490 -0.000000 -0.000000
Spine 4.277649 30.880892 -5.020372
RightShoulder -5.543581 -4.547095 -21.874753
RightArm 38.006887 -25.944612 56.872703
RightForeArm 13.851247 -0.000000 46.949587
RightHand 12.052638 -0.000000 36.234537
RightHandThumb1 -24.326973 -0.000000 -32.862282
LeftShoulder -29.835877 3.964953 25.213369
LeftArm 13.903791 -30.944266 -35.698297
LeftForeArm 23.025821 -0.000000 -0.001909
LeftHand -0.845008 -0.000000 -3.337224
LeftHandThumb1 -26.253704 0.000000 33.147579
Head -17.120191 58.971547 -31.226383
3764
root -3.562165 33.805461 -3.655624 -13.786032 -44.694143 24.328257
RightUpLeg -8.310012 -2.142638 -10.523231
RightLeg 20.140206 -0.000000 -0.000000
RightFoot -21.373806 -3.905958 -0.031088
RightToeBase 7.384751 -0.000000 -0.000000
LeftUpLeg -108.487058 -29.082950 -1.589106
LeftLeg 114.889645 -0.000000 -0.000000
LeftFoot 13.699485 -8.533422 -17.206289
LeftToeBase 0.421553 -0.000000 -0.000000
Spine 4.340587 30.885567 -4.987478
RightShoulder -5.555532 -4.557410 -21.881546
RightArm 38.037398 -25.956960 56.817466
RightForeArm 13.861206 0.000000 46.932136
RightHand 12.120825 0.000000 36.243643
RightHandThumb1 -24.326973 -0.000000 -32.862282
LeftShoulder -29.845675 3.993712 25.231013
LeftArm 13.850034 -30.895467 -35.675268
LeftForeArm 22.977471 -0.000000 -0.008880
LeftHand -0.861428 -0.000000 -3.194235
LeftHandThumb1 -26.253704 0.000000 33.147579
Head -17.074171 59.002489 -31.132973
3765
root -3.558338 33.805421 -3.649354 -13.858478 -44.784654 24.375772
RightUpLeg -8.350234 -2.193551 -10.561147
RightLeg 20.253275 -0.000000 -0.000000
RightFoot -21.504393 -3.687849 0.304444
RightToeBase 7.564122 -0.000000 -0.000000
LeftUpLeg -108.466541 -29.125470 -1.600663
LeftLeg 114.849622 -0.000000 -0.000000
LeftFoot 13.799214 -8.524077 -17.438408
LeftToeBase 1.296606 -0.000000 -0.000000
Spine 4.353844 30.896587 -4.975646
RightShoulder -5.555442 -4.547154 -21.896781
RightArm 37.984761 -25.973148 56.800866
RightForeArm 13.840255 -0.000000 46.944621
RightHand 12.177091 0.000000 36.282378
RightHandThumb1 -24.326973 -0.000000 -32.862282
LeftShoulder -29.904070 4.128076 25.197955
LeftArm 13.958821 -30.901323 -35.746539
LeftForeArm 22.964821 -0.000000 0.029175
LeftHand -0.898390 0.000000 -3.190731
LeftHandThumb1 -26.253704 0.000000 33.147579
Head -16.939869 59.047264 -30.974780
3766
root -3.556213 33.805128 -3.645624 -13.936291 -44.904429 24.424214
RightUpLeg -8.391878 -2.183505 -10.585653
RightLeg 20.352231 -0.000000 -0.000000
RightFoot -21.580344 -3.563464 0.530766
RightToeBase 7.450853 -0.000000 -0.000000
LeftUpLeg -108.438620 -29.147979 -1.596064
LeftLeg 114.798122 -0.000000 -0.000000
LeftFoot 13.920861 -8.611960 -17.249086
LeftToeBase 0.335953 -0.000000 -0.000000
Spine 4.387258 30.946339 -4.957954
RightShoulder -5.571213 -4.569381 -21.912909
RightArm 37.975988 -25.974877 56.790841
RightForeArm 13.904264 -0.000000 46.950588
RightHand 12.185448 -0.000000 36.202882
RightHandThumb1 -24.326973 -0.000000 -32.862282
LeftShoulder -29.878210 4.100288 25.215456
LeftArm 13.865896 -30.830025 -35.659459
LeftForeArm 22.923999 -0.000000 -0.009910
LeftHand -0.887209 -0.000000 -3.090033
LeftHandThumb1 -26.253704 0.000000 33.147579
Head -16.881184 59.061678 -30.894236
3767
root -3.555257 33.804174 -3.643430 -14.007500 -45.030246 24.470956
RightUpLeg -8.439037 -2.126796 -10.595606
RightLeg 20.448140 -0.000000 -0.000000
RightFoot -21.607431 -3.547528 0.611231
RightToeBase 7.210833 -0.000000 -0.000000
LeftUpLeg -108.431234 -29.143708 -1.565948
LeftLeg 114.757627 -0.000000 -0.000000
LeftFoot 14.091617 -8.660910 -17.324608
LeftToeBase 0.892118 -0.000000 -0.000000
Spine 4.400017 31.002680 -4.958452
RightShoulder -5.578020 -4.593771 -21.906586
RightArm 37.942898 -25.943089 56.811193
RightForeArm 13.840031 -0.000000 46.948247
RightHand 12.231171 -0.000000 36.249588
RightHandThumb1 -24.326973 -0.000000 -32.862282
LeftShoulder -29.881652 4.119641 25.233486
LeftArm 13.836946 -30.804812 -35.631919
LeftForeArm 22.970078 0.000000 0.012781
LeftHand -0.797332 -0.000000 -3.014326
LeftHandThumb1 -26.253704 0.000000 33.147579
Head -16.814148 59.107374 -30.792513
